<svg width="500" height="250" viewBox="0 0 500 250" fill="none" xmlns="http://www.w3.org/2000/svg">
<path fill-rule="evenodd" clip-rule="evenodd" d="M149.355 46.237C151.475 44.5877 154.438 44.5877 156.558 46.237C179.178 63.8338 205.02 63.6919 214.777 63.6383C215.265 63.6356 215.714 63.6331 216.119 63.6331C217.696 63.6331 219.206 64.2685 220.311 65.3967C221.417 66.5249 222.025 68.0515 221.999 69.634C221.541 97.9301 220.323 118.495 217.955 133.875C215.585 149.266 211.999 159.927 206.496 168.1C200.954 176.33 193.83 181.485 185.582 186.441C182.828 188.095 179.994 189.706 177.018 191.398C170.872 194.891 164.12 198.728 156.214 204.011C154.241 205.33 151.672 205.33 149.699 204.011C141.804 198.736 135.065 194.903 128.931 191.415C125.946 189.717 123.104 188.101 120.342 186.439C112.101 181.482 104.987 176.327 99.4567 168.094C93.9663 159.922 90.3926 149.261 88.0312 133.872C85.6714 118.493 84.4592 97.9294 84.0008 69.634C83.9751 68.0515 84.5833 66.5249 85.6887 65.3967C86.7942 64.2685 88.3045 63.6331 89.8807 63.6331C90.2816 63.6331 90.7255 63.6356 91.2099 63.6383C100.888 63.6919 126.733 63.8351 149.355 46.237ZM95.8719 75.444C96.3973 100.475 97.5843 118.577 99.6554 132.074C101.887 146.617 105.082 155.349 109.207 161.49C113.293 167.572 118.642 171.65 126.386 176.308C128.74 177.724 131.364 179.218 134.224 180.846C139.689 183.957 146.013 187.558 152.956 192.04C159.914 187.549 166.25 183.945 171.725 180.83C174.576 179.208 177.193 177.719 179.543 176.307C187.296 171.648 192.657 167.568 196.753 161.485C200.888 155.344 204.092 146.612 206.331 132.071C208.41 118.575 209.602 100.474 210.128 75.4446C198.141 75.2712 174.692 73.4392 152.956 58.231C131.243 73.4234 107.824 75.2674 95.8719 75.444Z" fill="#3375BB"/>
<path d="M273.898 90.4451H261.715V122.878H253.521V90.4451H241.502V83.9477H273.898V90.4451ZM293.32 108.627H286.791V122.878H278.596V83.9477H293.374C298.072 83.9477 301.696 84.9727 304.246 87.0226C306.795 89.0725 308.07 91.9691 308.07 95.7124C308.07 98.3684 307.478 100.588 306.294 102.37C305.129 104.135 303.354 105.543 300.968 106.595L309.572 122.504V122.878H300.777L293.32 108.627ZM286.791 102.13H293.401C295.46 102.13 297.053 101.621 298.182 100.606C299.311 99.5716 299.876 98.1545 299.876 96.3541C299.876 94.5182 299.338 93.0743 298.264 92.0226C297.208 90.9709 295.578 90.4451 293.374 90.4451H286.791V102.13ZM344.428 83.9477V109.589C344.428 113.85 343.061 117.219 340.33 119.696C337.617 122.174 333.902 123.413 329.185 123.413C324.542 123.413 320.854 122.21 318.122 119.803C315.391 117.397 313.998 114.09 313.942 109.884V83.9477H322.138V109.643C322.138 112.192 322.757 114.055 323.995 115.231C325.252 116.39 326.981 116.969 329.185 116.969C333.792 116.969 336.132 114.598 336.205 109.857V83.9477H344.428ZM371.77 112.664C371.77 111.149 371.224 109.991 370.131 109.188C369.039 108.368 367.072 107.513 364.231 106.622C361.39 105.712 359.141 104.821 357.484 103.948C352.967 101.559 350.71 98.3416 350.71 94.2954C350.71 92.1919 351.31 90.3203 352.513 88.6803C353.732 87.0226 355.472 85.7302 357.73 84.8033C360.006 83.8765 362.555 83.413 365.378 83.413C368.219 83.413 370.75 83.921 372.972 84.937C375.193 85.9352 376.914 87.3524 378.135 89.1884C379.373 91.0243 379.992 93.1099 379.992 95.445H371.797C371.797 93.6625 371.224 92.2811 370.076 91.3007C368.929 90.3025 367.318 89.8034 365.242 89.8034C363.238 89.8034 361.681 90.2222 360.57 91.06C359.459 91.88 358.904 92.9674 358.904 94.3221C358.904 95.5877 359.551 96.6483 360.844 97.5039C362.155 98.3595 364.076 99.1616 366.607 99.9102C371.269 101.283 374.665 102.985 376.796 105.017C378.926 107.049 379.992 109.58 379.992 112.611C379.992 115.98 378.69 118.627 376.086 120.552C373.482 122.459 369.977 123.413 365.569 123.413C362.51 123.413 359.724 122.869 357.21 121.782C354.698 120.677 352.777 119.171 351.447 117.263C350.136 115.356 349.481 113.146 349.481 110.632H357.702C357.702 114.928 360.325 117.076 365.569 117.076C367.518 117.076 369.039 116.693 370.131 115.926C371.224 115.142 371.77 114.055 371.77 112.664ZM415.502 90.4451H403.319V122.878H395.125V90.4451H383.106V83.9477H415.502V90.4451Z" fill="#3375BB"/>
<path d="M256.054 159.913L257.015 164.726L258.192 160.126L264.949 137.281H267.323L273.994 160.126L275.149 164.768L276.175 159.913L281.799 137.281H284.494L276.518 168.281H273.994L266.937 144.03L266.146 140.965L265.377 144.03L258.149 168.281H255.625L247.671 137.281H250.365L256.054 159.913ZM305.429 159.594H291.294L288.087 168.281H285.327L297.111 137.281H299.612L311.395 168.281H308.658L305.429 159.594ZM292.107 157.359H304.594L298.351 140.475L292.107 157.359ZM318.644 166.067H334.019V168.281H315.992V137.281H318.644V166.067ZM341.739 166.067H357.113V168.281H339.087V137.281H341.739V166.067ZM379.374 153.42H364.811V166.067H381.556V168.281H362.182V137.281H381.449V139.517H364.811V151.206H379.374V153.42ZM408.671 139.517H398V168.281H395.369V139.517H384.72V137.281H408.671V139.517Z" fill="#3375BB"/>
</svg>
